<?xml version="1.0" encoding="UTF-8"?>
<svg xmlns="http://www.w3.org/2000/svg" xmlns:xlink="http://www.w3.org/1999/xlink" width="32px" height="32px" viewBox="0 0 32 32" version="1.1">
<g id="surface1">
<path style=" stroke:none;fill-rule:nonzero;fill:rgb(82.352941%,0%,0%);fill-opacity:1;" d="M 0.0976562 31.449219 L 10.539062 31.449219 L 10.539062 30.117188 C 8.875 29.957031 7.972656 29.957031 7.6875 29.402344 C 7.574219 29.207031 7.574219 29.175781 7.574219 27.230469 L 7.574219 16.648438 L 10.285156 16.648438 C 12.65625 16.648438 14.488281 17.492188 15.140625 20.574219 C 15.421875 21.875 15.871094 25.445312 16.296875 27.554688 C 16.890625 30.441406 18.382812 31.449219 20.726562 31.449219 L 23.917969 31.449219 L 23.917969 30.117188 C 20.839844 29.761719 20.21875 27.230469 19.851562 24.144531 C 19.371094 20.089844 18.667969 17.039062 14.488281 15.871094 L 14.488281 15.773438 C 18.1875 14.960938 20.925781 12.105469 20.925781 7.789062 C 20.925781 3.40625 18.554688 0 11.640625 0 L 0.0976562 0 L 0.0976562 1.332031 C 3.570312 1.589844 3.652344 1.6875 3.652344 4.21875 L 3.652344 27.230469 C 3.652344 29.761719 3.570312 29.859375 0.0976562 30.117188 Z M 7.574219 15.058594 L 7.574219 3.863281 C 7.574219 1.945312 7.828125 1.589844 10.453125 1.589844 C 13.359375 1.589844 16.691406 2.824219 16.691406 8.179688 C 16.691406 12.949219 14.519531 15.058594 10.679688 15.058594 Z M 26.9375 29.144531 C 26.9375 30.765625 27.921875 32 29.417969 32 C 30.941406 32 31.875 30.765625 31.902344 29.144531 C 31.902344 27.457031 30.941406 26.191406 29.417969 26.191406 C 27.921875 26.191406 26.9375 27.457031 26.9375 29.144531 Z M 26.9375 29.144531 "/>
</g>
</svg>
