<?xml version="1.0" encoding="UTF-8"?>
<svg xmlns="http://www.w3.org/2000/svg" xmlns:xlink="http://www.w3.org/1999/xlink" width="229px" height="32px" viewBox="0 0 226 32" version="1.1">
<g id="surface1">
<path style=" stroke:none;fill-rule:nonzero;fill:rgb(82.352941%,0%,0%);fill-opacity:1;" d="M 0.0273438 31.449219 L 12.027344 31.449219 L 12.027344 30.117188 C 10.117188 29.957031 9.078125 29.957031 8.753906 29.402344 C 8.625 29.207031 8.625 29.175781 8.625 27.230469 L 8.625 16.648438 L 11.738281 16.648438 C 14.460938 16.648438 16.570312 17.492188 17.316406 20.574219 C 17.640625 21.875 18.160156 25.445312 18.644531 27.554688 C 19.328125 30.441406 21.046875 31.449219 23.738281 31.449219 L 27.402344 31.449219 L 27.402344 30.117188 C 23.867188 29.761719 23.15625 27.230469 22.734375 24.144531 C 22.179688 20.089844 21.371094 17.039062 16.570312 15.871094 L 16.570312 15.773438 C 20.820312 14.960938 23.964844 12.105469 23.964844 7.789062 C 23.964844 3.40625 21.242188 0 13.292969 0 L 0.0273438 0 L 0.0273438 1.332031 C 4.019531 1.589844 4.113281 1.6875 4.113281 4.21875 L 4.113281 27.230469 C 4.113281 29.761719 4.019531 29.859375 0.0273438 30.117188 Z M 8.625 15.058594 L 8.625 3.863281 C 8.625 1.945312 8.914062 1.589844 11.933594 1.589844 C 15.273438 1.589844 19.101562 2.824219 19.101562 8.179688 C 19.101562 12.949219 16.601562 15.058594 12.191406 15.058594 Z M 29.285156 31.449219 L 53.351562 31.449219 L 53.871094 23.59375 L 52.507812 23.59375 C 51.46875 29.144531 49.425781 29.859375 43.71875 29.859375 C 41.578125 29.859375 39.957031 29.761719 38.984375 29.402344 C 38.042969 28.980469 37.847656 28.234375 37.847656 25.996094 L 37.847656 15.96875 L 44.203125 15.96875 C 48.066406 15.96875 48.257812 17.039062 48.648438 19.894531 L 50.011719 19.894531 L 50.011719 10.320312 L 48.648438 10.320312 C 48.257812 13.144531 48.066406 14.214844 44.203125 14.214844 L 37.847656 14.214844 L 37.847656 3.246094 C 37.847656 1.785156 38.074219 1.589844 39.535156 1.589844 L 43.976562 1.589844 C 49.167969 1.589844 50.207031 2.726562 50.855469 7.464844 L 52.214844 7.464844 L 52.214844 0 L 29.285156 0 L 29.285156 1.332031 C 33.273438 1.589844 33.371094 1.6875 33.371094 4.21875 L 33.371094 27.230469 C 33.371094 29.761719 33.273438 29.859375 29.285156 30.117188 Z M 53.871094 31.449219 L 63.859375 31.449219 L 63.859375 30.117188 L 61.523438 29.890625 C 60.164062 29.761719 60 29.304688 60.390625 28.074219 C 61.136719 25.347656 62.109375 22.554688 63.148438 19.308594 L 73.332031 19.308594 L 76.347656 28.007812 C 76.800781 29.304688 76.574219 29.824219 75.148438 29.957031 L 73.105469 30.117188 L 73.105469 31.449219 L 84.714844 31.449219 L 84.714844 30.117188 C 82.089844 29.890625 81.570312 29.761719 80.757812 27.390625 L 71.125 0 L 67.785156 0 L 63.015625 13.46875 C 61.589844 17.394531 59.707031 22.847656 58.121094 27.003906 C 57.148438 29.4375 56.757812 29.988281 53.871094 30.117188 Z M 63.730469 17.589844 C 65.191406 13.046875 66.78125 8.601562 68.140625 4.609375 L 68.273438 4.609375 L 72.78125 17.589844 Z M 85.625 31.449219 L 98.308594 31.449219 L 98.308594 30.117188 C 94.351562 29.859375 94.21875 29.761719 94.21875 27.230469 L 94.21875 4.21875 C 94.21875 1.6875 94.351562 1.589844 98.308594 1.332031 L 98.308594 0 L 85.625 0 L 85.625 1.332031 C 89.613281 1.589844 89.710938 1.6875 89.710938 4.21875 L 89.710938 27.230469 C 89.710938 29.761719 89.613281 29.859375 85.625 30.117188 Z M 100.871094 7.5625 L 102.230469 7.5625 C 102.78125 2.597656 103.757812 1.589844 109.042969 1.589844 L 111.734375 1.589844 L 111.734375 27.230469 C 111.734375 29.761719 111.605469 29.859375 106.738281 30.117188 L 106.738281 31.449219 L 121.238281 31.449219 L 121.238281 30.117188 C 116.375 29.859375 116.242188 29.761719 116.242188 27.230469 L 116.242188 1.589844 L 118.902344 1.589844 C 124.222656 1.589844 125.164062 2.597656 125.714844 7.5625 L 127.078125 7.5625 L 127.078125 0 L 100.871094 0 Z M 130.320312 20.511719 C 130.320312 27.683594 133.402344 32 140.796875 32 C 145.824219 32 148.417969 29.175781 149.652344 25.574219 L 148.289062 24.859375 C 147.023438 27.488281 145.304688 29.664062 141.707031 29.664062 C 136.0625 29.664062 134.925781 24.210938 135.023438 19.503906 L 148.09375 19.503906 C 149.066406 19.503906 149.910156 19.277344 149.910156 17.785156 C 149.910156 15.089844 149.066406 8.632812 140.765625 8.632812 C 133.660156 8.632812 130.320312 13.695312 130.320312 20.511719 Z M 135.089844 17.785156 C 135.089844 15.902344 135.769531 10.222656 140.472656 10.222656 C 144.6875 10.222656 145.207031 14.539062 145.207031 16.324219 C 145.207031 17.167969 144.917969 17.785156 143.652344 17.785156 Z M 153.640625 25.542969 C 153.640625 28.949219 155.910156 32 160.191406 32 C 162.820312 32 165.511719 30.214844 166.941406 29.273438 C 167.589844 30.960938 168.300781 32 169.890625 32 C 171.578125 32 173.523438 31.480469 175.277344 30.636719 L 174.984375 29.535156 C 174.367188 29.664062 173.363281 29.761719 172.679688 29.597656 C 171.871094 29.402344 171.089844 28.527344 171.089844 25.671875 L 171.089844 14.667969 C 171.089844 12.039062 170.507812 8.632812 163.632812 8.632812 C 158.507812 8.632812 154.453125 11.328125 154.453125 13.824219 C 154.453125 15.285156 156.140625 15.96875 157.015625 15.96875 C 157.957031 15.96875 158.246094 15.449219 158.472656 14.667969 C 159.445312 11.328125 161.328125 10.222656 163.144531 10.222656 C 164.894531 10.222656 167.003906 11.132812 167.003906 14.765625 L 167.003906 16.679688 C 165.871094 17.851562 161.457031 18.984375 157.859375 20.121094 C 154.613281 21.128906 153.640625 23.398438 153.640625 25.542969 Z M 158.246094 24.890625 C 158.246094 22.78125 159.21875 21.679688 161.78125 20.738281 C 163.597656 20.058594 166 19.179688 167.003906 18.53125 L 167.003906 24.957031 C 167.003906 28.625 164.183594 29.597656 162.398438 29.597656 C 159.609375 29.597656 158.246094 27.585938 158.246094 24.890625 Z M 176.636719 31.449219 L 187.699219 31.449219 L 187.699219 30.117188 C 184.488281 29.890625 184.292969 29.824219 184.292969 27.488281 L 184.292969 16.875 C 184.292969 15.742188 184.359375 15.089844 184.648438 14.441406 C 185.523438 12.625 187.535156 11.097656 190.035156 11.097656 C 193.925781 11.097656 194.378906 13.957031 194.378906 16.777344 L 194.378906 27.488281 C 194.378906 29.824219 194.25 29.890625 190.972656 30.117188 L 190.972656 31.449219 L 202.066406 31.449219 L 202.066406 30.117188 C 198.824219 29.890625 198.660156 29.824219 198.660156 27.488281 L 198.660156 16.875 C 198.660156 15.742188 198.695312 15.089844 198.953125 14.378906 C 199.632812 12.558594 201.613281 11.097656 204.144531 11.097656 C 206.996094 11.097656 208.714844 12.722656 208.714844 16.777344 L 208.714844 27.488281 C 208.714844 29.824219 208.585938 29.890625 205.3125 30.117188 L 205.3125 31.449219 L 216.402344 31.449219 L 216.402344 30.117188 C 213.191406 29.890625 212.996094 29.824219 212.996094 27.488281 L 212.996094 15.871094 C 212.996094 11.261719 210.53125 8.632812 206.21875 8.632812 C 202.519531 8.632812 199.828125 11.132812 198.238281 12.136719 C 197.136719 9.996094 195.417969 8.632812 192.238281 8.632812 C 188.734375 8.632812 185.882812 10.90625 184.292969 12.105469 L 183.902344 8.632812 L 176.863281 9.769531 L 176.863281 10.90625 L 178.585938 11.132812 C 179.75 11.328125 180.042969 11.554688 180.042969 13.175781 L 180.042969 27.488281 C 180.042969 29.824219 179.882812 29.890625 176.636719 30.117188 Z M 220.261719 29.144531 C 220.261719 30.765625 221.398438 32 223.117188 32 C 224.902344 32 225.9375 30.765625 225.972656 29.144531 C 225.972656 27.457031 224.902344 26.191406 223.117188 26.191406 C 221.398438 26.191406 220.261719 27.457031 220.261719 29.144531 Z M 220.261719 29.144531 "/>
</g>
</svg>
